<?xml version="1.0" standalone="no"?>
<!DOCTYPE svg PUBLIC "-//W3C//DTD SVG 20010904//EN"
 "http://www.w3.org/TR/2001/REC-SVG-20010904/DTD/svg10.dtd">
<svg version="1.0" xmlns="http://www.w3.org/2000/svg"
 width="318.000000pt" height="318.000000pt" viewBox="0 0 318.000000 318.000000"
 preserveAspectRatio="xMidYMid meet">

<g transform="translate(0.000000,318.000000) scale(0.100000,-0.100000)"
fill="#000000" stroke="none">
<path d="M1478 2680 c-38 -38 -40 -43 -36 -85 7 -57 31 -93 75 -111 61 -26
134 3 159 63 24 56 18 88 -24 133 -35 36 -44 40 -87 40 -42 0 -52 -5 -87 -40z"/>
<path d="M739 2346 c-2 -2 -3 -101 -1 -219 l3 -214 214 -7 c118 -4 219 -5 225
-1 6 4 10 88 10 226 l0 219 -223 0 c-123 0 -226 -2 -228 -4z"/>
<path d="M1860 2212 c-31 -15 -36 -22 -40 -65 -6 -47 2 -67 27 -67 29 0 93
-204 93 -295 0 -42 -7 -63 -37 -113 -21 -34 -59 -79 -85 -101 l-48 -39 -129
-1 -129 -2 -26 31 c-49 59 -56 122 -21 213 7 16 -7 17 -199 17 l-205 0 -16
-30 c-8 -16 -15 -30 -15 -32 0 -2 41 -1 91 1 177 6 241 -49 256 -224 l6 -75
167 0 c151 0 167 -2 169 -17 2 -10 3 -52 4 -94 l2 -76 269 -6 c148 -4 386 -7
528 -7 l258 0 0 100 0 100 -204 0 -204 0 -12 48 c-11 49 -61 122 -83 122 -23
0 -162 -75 -265 -144 -102 -67 -104 -68 -118 -47 -9 12 -26 21 -40 21 -32 0
-30 10 7 46 38 35 209 240 226 271 11 19 4 40 -57 168 -39 80 -70 151 -70 157
0 5 6 8 14 5 8 -3 31 -9 50 -13 l36 -6 0 86 0 86 -82 0 c-59 0 -93 -5 -118
-18z"/>
<path d="M315 2110 c8 -13 315 -13 335 0 10 6 -44 10 -163 10 -116 0 -176 -3
-172 -10z"/>
<path d="M1312 2031 c3 -41 11 -70 25 -89 20 -26 23 -27 144 -32 68 -3 130 -9
137 -13 37 -25 53 -104 38 -194 -7 -40 -7 -41 23 -48 56 -12 67 -2 90 90 27
110 28 176 1 200 -11 10 -69 31 -128 46 -87 23 -112 34 -132 58 -23 27 -32 30
-114 36 l-89 8 5 -62z"/>
<path d="M160 2010 c0 -6 91 -10 254 -10 159 0 257 4 261 10 4 7 -83 10 -254
10 -167 0 -261 -4 -261 -10z"/>
<path d="M530 1770 c0 -6 68 -10 185 -10 117 0 185 4 185 10 0 6 -68 10 -185
10 -117 0 -185 -4 -185 -10z"/>
<path d="M234 1671 c8 -12 533 -13 541 -1 4 7 -91 10 -270 10 -155 0 -274 -4
-271 -9z"/>
<path d="M748 1592 c-82 -1 -148 -6 -148 -11 0 -12 391 -24 404 -11 5 5 6 13
2 17 -8 9 -40 9 -258 5z"/>
<path d="M650 1523 c-107 -2 -198 -7 -203 -12 -11 -11 445 -20 458 -9 13 12
-13 28 -40 26 -11 -2 -108 -4 -215 -5z"/>
<path d="M942 1433 l-53 -4 7 -32 c11 -54 42 -104 81 -134 33 -26 43 -28 124
-28 82 0 89 2 126 31 40 32 83 104 83 140 0 19 -7 22 -82 27 -83 7 -186 7
-286 0z"/>
<path d="M770 1101 l0 -82 28 3 c19 2 28 9 30 26 3 19 10 22 45 22 56 0 91 19
95 51 5 40 -20 52 -114 57 l-84 5 0 -82z m140 25 c0 -16 -21 -26 -56 -26 -17
0 -24 6 -24 20 0 17 7 20 40 20 28 0 40 -4 40 -14z"/>
<path d="M1070 1101 l0 -80 87 2 c75 2 88 5 91 20 3 15 -5 17 -57 17 -48 0
-61 3 -61 15 0 11 12 15 44 15 25 0 48 5 51 10 4 6 -13 10 -44 10 -39 0 -51 4
-51 15 0 12 13 15 55 15 48 0 55 2 55 20 0 18 -7 20 -85 20 l-85 0 0 -79z"/>
<path d="M1350 1102 l0 -79 82 1 c70 1 83 4 86 19 3 14 -5 17 -52 17 l-55 0
-3 58 c-3 54 -4 57 -30 60 l-28 3 0 -79z"/>
<path d="M1610 1100 l0 -81 93 3 c74 2 92 6 92 18 0 11 -15 16 -62 18 -47 2
-63 7 -63 17 0 11 13 15 50 15 63 0 66 18 3 22 -70 5 -67 26 4 30 44 2 58 7
58 18 0 12 -18 16 -87 18 l-88 3 0 -81z"/>
<path d="M1890 1101 c0 -79 1 -81 24 -81 14 0 30 10 40 25 9 14 23 25 32 25 8
0 30 -11 48 -25 31 -24 86 -34 86 -17 0 5 -20 23 -45 41 -25 18 -45 34 -45 36
0 2 20 16 45 32 25 15 45 31 45 36 0 19 -61 3 -107 -28 -29 -19 -54 -35 -57
-35 -3 0 -6 15 -8 33 -2 27 -8 33 -30 35 l-28 3 0 -80z"/>
<path d="M2265 1110 c-25 -39 -45 -75 -45 -81 0 -12 54 -3 58 11 6 16 108 12
122 -5 13 -16 46 -20 54 -7 2 4 -16 40 -42 80 -39 61 -50 72 -73 72 -24 0 -35
-11 -74 -70z m89 4 c10 -26 7 -34 -12 -34 -26 0 -33 10 -21 31 12 23 25 24 33
3z"/>
<path d="M1842 881 c-20 -12 -11 -45 13 -49 11 -2 24 -8 30 -13 16 -15 -16
-29 -38 -17 -10 5 -21 7 -24 5 -9 -10 38 -28 57 -22 31 10 25 41 -10 54 -41
14 -39 35 2 29 28 -5 29 -4 13 9 -22 15 -25 16 -43 4z"/>
<path d="M2880 870 c-11 -11 -20 -24 -20 -29 0 -39 39 -68 70 -51 11 6 20 16
20 23 0 8 -3 8 -9 -1 -4 -8 -19 -12 -32 -10 -19 2 -24 9 -24 33 0 24 5 31 24
33 13 2 28 -2 32 -10 6 -9 9 -9 9 -1 0 11 -30 33 -44 33 -3 0 -15 -9 -26 -20z"/>
<path d="M17 873 c-3 -7 -3 -34 2 -82 1 -15 46 -8 68 11 16 13 17 50 1 66 -13
13 -64 16 -71 5z m66 -24 c15 -24 1 -49 -28 -49 -22 0 -25 4 -25 36 0 31 3 35
21 32 12 -2 27 -10 32 -19z"/>
<path d="M240 830 c0 -50 0 -50 33 -49 29 1 29 2 8 8 -33 9 -38 29 -10 39 l23
9 -22 5 c-31 8 -27 26 6 31 25 4 25 4 -5 6 l-33 1 0 -50z"/>
<path d="M452 833 c-2 -50 -1 -53 23 -53 14 0 25 5 25 10 0 6 -9 10 -19 10
-16 0 -21 8 -24 43 -3 40 -4 40 -5 -10z"/>
<path d="M655 830 c0 -34 4 -50 12 -50 9 0 13 17 13 50 0 33 -4 50 -12 50 -9
0 -13 -17 -13 -50z"/>
<path d="M830 877 c0 -2 7 -24 16 -50 9 -28 20 -44 28 -41 15 6 49 94 36 94
-5 0 -14 -18 -20 -40 -12 -45 -25 -45 -35 0 -4 16 -11 32 -16 35 -5 4 -9 4 -9
2z"/>
<path d="M1050 830 l0 -50 33 1 c21 1 25 3 10 6 -30 6 -38 32 -11 42 l22 8
-22 5 c-31 8 -27 26 6 31 25 4 25 4 -5 6 l-33 1 0 -50z"/>
<path d="M1261 833 c0 -39 2 -44 9 -25 12 28 34 28 47 0 8 -19 10 -15 10 25 1
47 1 47 -33 47 l-34 0 1 -47z m59 22 c0 -9 -9 -15 -25 -15 -16 0 -25 6 -25 15
0 9 9 15 25 15 16 0 25 -6 25 -15z"/>
<path d="M1471 875 c1 -21 38 -89 38 -72 1 10 8 31 16 47 9 17 11 30 6 30 -5
0 -13 -10 -17 -22 l-6 -21 -19 24 c-10 13 -18 20 -18 14z"/>
<path d="M2042 833 c3 -43 6 -48 28 -51 22 -2 23 -1 8 8 -10 6 -18 17 -18 25
0 7 8 16 18 18 16 4 16 5 0 6 -26 2 -22 29 5 34 15 3 12 5 -11 6 l-33 1 3 -47z"/>
<path d="M2251 833 c0 -39 2 -44 9 -25 12 27 40 29 47 2 3 -11 10 -20 15 -20
5 0 5 7 -1 17 -6 11 -6 24 0 35 14 26 3 38 -37 38 l-34 0 1 -47z m64 27 c8
-13 -20 -24 -41 -16 -20 8 -9 26 16 26 10 0 22 -5 25 -10z"/>
<path d="M2478 833 c19 -53 31 -58 48 -22 20 40 27 72 16 65 -6 -3 -13 -20
-17 -36 -10 -45 -23 -45 -36 0 -7 22 -16 40 -20 40 -5 0 -1 -21 9 -47z"/>
<path d="M2695 830 c0 -29 4 -50 11 -50 6 0 10 20 10 50 -1 27 -5 50 -11 50
-5 0 -10 -23 -10 -50z"/>
<path d="M3100 830 c0 -50 0 -50 33 -49 29 1 30 2 7 8 -33 9 -38 38 -8 44 l23
4 -22 2 c-33 2 -29 29 5 34 25 4 25 4 -5 6 l-33 1 0 -50z"/>
</g>
</svg>
